<?xml version="1.0" encoding="UTF-8"?>
<svg id="Layer_1" data-name="Layer 1" xmlns="http://www.w3.org/2000/svg" viewBox="0 0 163.24 153.8">
  <defs>
    <style>
      .cls-1 {
        fill: none;
        stroke: #bcbcbc;
        stroke-miterlimit: 10;
        stroke-width: 7px;
      }

      .cls-2 {
        opacity: .38;
      }
    </style>
  </defs>
  <g class="cls-2">
    <g>
      <path class="cls-1" d="M8.24,3.5h36.21c.96,0,1.74.78,1.74,1.74v32.78"/>
      <line class="cls-1" x1="46.18" y1="3.5" x2="2.47" y2="47.21"/>
    </g>
    <g>
      <path class="cls-1" d="M65.02,3.5h36.21c.96,0,1.74.78,1.74,1.74v32.78"/>
      <line class="cls-1" x1="102.96" y1="3.5" x2="59.25" y2="47.21"/>
    </g>
    <g>
      <path class="cls-1" d="M121.79,3.5h36.21c.96,0,1.74.78,1.74,1.74v32.78"/>
      <line class="cls-1" x1="159.74" y1="3.5" x2="116.03" y2="47.21"/>
    </g>
  </g>
  <g class="cls-2">
    <g>
      <path class="cls-1" d="M8.24,54h36.21c.96,0,1.74.78,1.74,1.74v32.78"/>
      <line class="cls-1" x1="46.18" y1="54" x2="2.47" y2="97.71"/>
    </g>
    <g>
      <path class="cls-1" d="M65.02,54h36.21c.96,0,1.74.78,1.74,1.74v32.78"/>
      <line class="cls-1" x1="102.96" y1="54" x2="59.25" y2="97.71"/>
    </g>
    <g>
      <path class="cls-1" d="M121.79,54h36.21c.96,0,1.74.78,1.74,1.74v32.78"/>
      <line class="cls-1" x1="159.74" y1="54" x2="116.03" y2="97.71"/>
    </g>
  </g>
  <g class="cls-2">
    <g>
      <path class="cls-1" d="M8.24,107.62h36.21c.96,0,1.74.78,1.74,1.74v32.78"/>
      <line class="cls-1" x1="46.18" y1="107.62" x2="2.47" y2="151.33"/>
    </g>
    <g>
      <path class="cls-1" d="M65.02,107.62h36.21c.96,0,1.74.78,1.74,1.74v32.78"/>
      <line class="cls-1" x1="102.96" y1="107.62" x2="59.25" y2="151.33"/>
    </g>
    <g>
      <path class="cls-1" d="M121.79,107.62h36.21c.96,0,1.74.78,1.74,1.74v32.78"/>
      <line class="cls-1" x1="159.74" y1="107.62" x2="116.03" y2="151.33"/>
    </g>
  </g>
</svg>